Coordinates
version=1
nRows=21
nColumns=33
inDegrees=yes

Units are S.I. units (second, meters, Newtons, ...)
Angles are in degrees.

endheader
time	ground_thorax_rot_x	ground_thorax_rot_y	ground_thorax_rot_z	ground_thorax_tx	ground_thorax_ty	ground_thorax_tz	clav_prot_r	clav_elev_r	scapula_abduction_r	scapula_elevation_r	scapula_upward_rot_r	scapula_winging_r	shoulder_elv_r	plane_of_elev_r	axial_rot_r	elbow_flexion_r	pro_sup_r	wrist_flex_r	wrist_dev_r	clav_prot_l	clav_elev_l	scapula_abduction_l	scapula_elevation_l	scapula_upward_rot_l	scapula_winging_l	shoulder_elv_l	plane_of_elev_l	axial_rot_l	elbow_flexion_l	pro_sup_l	wrist_flex_l	wrist_dev_l	
1.4900	23.095748	33.181517	11.106517	0.049874	1.012881	-0.051045	-15.422925	36.344314	-16.483299	27.443167	45.000000	-7.973685	6.588964	-90.000000	35.932561	70.713612	5.899977	45.112225	-21.917437	17.301062	-4.986208	-45.000000	0.631780	10.785827	21.177480	6.174818	-58.290097	-19.823992	63.106168	29.789033	-3.033861	-24.999996	
1.5000	23.072034	33.239557	11.157148	0.049634	1.012852	-0.051066	-15.413899	36.332309	-16.439144	27.432675	45.000000	-7.978332	6.663758	-90.000000	35.857786	70.803620	5.994877	45.037567	-21.707191	17.308220	-5.093728	-45.000000	0.712362	10.771732	21.135584	6.269410	-58.159563	-19.796472	63.228791	29.679143	-2.923129	-24.999993	
1.5100	23.060619	33.304538	11.196906	0.049395	1.012836	-0.051062	-15.406726	36.326177	-16.412182	27.427578	45.000000	-7.980337	6.763464	-90.000000	35.758113	70.922338	6.118191	44.915783	-21.425770	17.327024	-5.231052	-45.000000	0.806109	10.719525	21.084344	6.405339	-58.007859	-19.765186	63.376776	29.507947	-2.734874	-24.999988	
1.5200	23.060336	33.377100	11.228167	0.049145	1.012863	-0.051021	-15.401592	36.323428	-16.394459	27.425473	45.000000	-7.980806	6.882552	-90.000000	35.639068	71.072706	6.260825	44.750813	-21.088925	17.355393	-5.392961	-45.000000	0.910650	10.635635	21.026035	6.581570	-57.830066	-19.731364	63.551883	29.273814	-2.467627	-24.999979	
1.5300	23.064870	33.461188	11.253660	0.048884	1.012911	-0.050963	-15.398480	36.322343	-16.384355	27.424722	45.000000	-7.980709	7.006866	-89.999999	35.514814	71.257997	6.387371	44.532620	-20.756998	17.392118	-5.561832	-45.000000	1.012775	10.522494	20.967085	6.800780	-57.612788	-19.706520	63.743701	28.949954	-2.081028	-24.999963	
1.5400	23.068572	33.546771	11.271442	0.048612	1.012975	-0.050904	-15.394734	36.316145	-16.362604	27.419143	45.000000	-7.983042	7.130694	-89.999999	35.391058	71.466705	6.490952	44.285471	-20.443238	17.432385	-5.728471	-45.000000	1.109676	10.396433	20.909866	7.050404	-57.364575	-19.687957	63.950658	28.561425	-1.612232	-24.999934	
1.5500	23.062384	33.639637	11.298647	0.048336	1.013044	-0.050869	-15.388245	36.307848	-16.330126	27.411861	45.000000	-7.985925	7.238508	-89.999998	35.283322	71.683202	6.543557	44.031452	-20.203482	17.469707	-5.871762	-45.000000	1.190373	10.278306	20.861107	7.304779	-57.089466	-19.683834	64.146000	28.134006	-1.091797	-24.999881	
1.5600	23.040835	33.731697	11.340875	0.048064	1.013110	-0.050876	-15.374993	36.295354	-16.273192	27.401297	45.000000	-7.989740	7.327258	-89.999996	35.194654	71.886822	6.544621	43.809108	-20.033395	17.498270	-5.984398	-45.000000	1.254508	10.188158	20.822247	7.538497	-56.803130	-19.689412	64.317319	27.714584	-0.588532	-24.999787	
1.5700	23.006661	33.824296	11.395809	0.047792	1.013163	-0.050917	-15.356606	36.279459	-16.197098	27.388051	45.000000	-7.994351	7.401612	-89.999992	35.120392	72.082975	6.494682	43.609200	-19.912835	17.521682	-6.072967	-45.000000	1.303828	10.113390	20.791723	7.761124	-56.496660	-19.704939	64.463953	27.282726	-0.080645	-24.999619	
1.5800	22.971538	33.916872	11.450835	0.047511	1.013194	-0.050971	-15.334129	36.262686	-16.109210	27.374400	45.000000	-7.998704	7.480651	-89.999986	35.041470	72.289217	6.393950	43.397974	-19.755265	17.553473	-6.158818	-45.000000	1.342350	10.007123	20.764905	8.010178	-56.137181	-19.729623	64.594564	26.752546	0.525090	-24.999317	
1.5900	22.937918	34.018441	11.509113	0.047225	1.013201	-0.051026	-15.310769	36.249514	-16.026117	27.364307	45.000000	-8.001048	7.568627	-89.999975	34.953659	72.510437	6.241389	43.165582	-19.556271	17.597444	-6.248024	-45.000000	1.371262	9.856208	20.740273	8.294062	-55.714676	-19.766997	64.702523	26.108820	1.239702	-24.998776	
1.6000	22.905597	34.128028	11.567506	0.046936	1.013181	-0.051080	-15.288003	36.237466	-15.947054	27.355200	45.000000	-8.002943	7.666386	-89.999956	34.856142	72.746051	6.036918	42.914914	-19.316200	17.654183	-6.342539	-45.000000	1.391557	9.658747	20.717186	8.614639	-55.227931	-19.816433	64.786866	25.355184	2.052153	-24.997809	
1.6100	22.878767	34.243327	11.608482	0.046638	1.013139	-0.051116	-15.272956	36.216894	-15.871539	27.337151	45.000000	-8.010473	7.778917	-89.999920	34.743992	73.002036	5.770779	42.652231	-19.024981	17.730893	-6.452844	-45.000000	1.404224	9.388720	20.693227	8.997568	-54.653207	-19.882467	64.847932	24.464198	2.947984	-24.996074	
1.6200	22.855017	34.363310	11.635670	0.046340	1.013078	-0.051142	-15.264779	36.187529	-15.796941	27.309960	45.000000	-8.023677	7.903911	-89.999857	34.619609	73.269841	5.452078	42.384402	-18.694056	17.822626	-6.576491	-45.000000	1.412302	9.064206	20.667991	9.425381	-54.006825	-19.959432	64.882791	23.480375	3.891157	-24.992971	
1.6300	22.831030	34.484173	11.649328	0.046044	1.013030	-0.051165	-15.265191	36.141737	-15.713378	27.266232	45.000000	-8.046615	8.037354	-89.999745	34.487182	73.527761	5.093162	42.144362	-18.349964	17.917787	-6.710013	-45.000000	1.424298	8.726776	20.639324	9.858221	-53.313535	-20.035769	64.869272	22.517009	4.761822	-24.987399	
1.6400	22.798318	34.603108	11.665102	0.045774	1.012986	-0.051201	-15.268359	36.084607	-15.616055	27.211401	45.000000	-8.075738	8.171601	-89.999542	34.354647	73.765094	4.727057	41.934002	-18.022238	18.002617	-6.844226	-45.000000	1.446792	8.426549	20.606797	10.252562	-52.626266	-20.093253	64.817518	21.679581	5.504071	-24.977456	
1.6500	22.765631	34.723241	11.673358	0.045503	1.012945	-0.051232	-15.276615	36.017512	-15.513272	27.146613	45.000000	-8.110670	8.313505	-89.999180	34.215738	74.011851	4.285290	41.697803	-17.643500	18.096287	-6.985986	-45.000000	1.464723	8.090655	20.573279	10.652535	-51.873439	-20.127858	64.718518	20.870544	6.247726	-24.959541	
1.6600	22.727060	34.845942	11.689704	0.045252	1.012882	-0.051265	-15.283924	35.951033	-15.409844	27.082583	45.000000	-8.145158	8.459067	-89.998531	34.075353	74.270000	3.790443	41.416088	-17.225161	18.194496	-7.130140	-45.000000	1.478688	7.735398	20.539807	11.046836	-51.089013	-20.133475	64.599385	20.102040	7.024964	-24.927740	
1.6700	22.694650	34.974311	11.694606	0.044988	1.012817	-0.051287	-15.296272	35.878329	-15.308543	27.012240	45.000000	-8.183537	8.615803	-89.997370	33.927728	74.553694	3.174696	41.066873	-16.720160	18.312857	-7.287826	-45.000000	1.480349	7.300701	20.506265	11.474893	-50.201804	-20.119394	64.438698	19.290985	7.899690	-24.869967	
1.6800	22.654735	35.111649	11.708038	0.044745	1.012759	-0.051313	-15.313423	35.800391	-15.211191	26.936617	45.000000	-8.225295	8.775786	-89.995287	33.783543	74.826896	2.504919	40.705850	-16.196637	18.434057	-7.454326	-45.000000	1.484395	6.852347	20.469240	11.894989	-49.289205	-20.089619	64.250041	18.524856	8.744317	-24.768732	
1.6900	22.624485	35.259863	11.704827	0.044482	1.012710	-0.051319	-15.341022	35.712708	-15.123481	26.850808	45.000000	-8.273484	8.952932	-89.991564	33.634152	75.119647	1.686052	40.291362	-15.577397	18.584972	-7.643962	-45.000000	1.472920	6.287145	20.430527	12.378997	-48.245846	-20.063846	64.028500	17.642379	9.692693	-24.581106	
